<svg width="1028" height="200" viewBox="0 0 1028 200" fill="none" xmlns="http://www.w3.org/2000/svg">
<path d="M70.7656 81.0561C72.5947 83.4285 73.9674 86.099 74.882 89.0677C75.7982 92.0347 76.2563 95.1994 76.2563 98.5635C76.2563 105.979 74.203 112.31 70.0965 117.55C65.5451 123.387 59.4133 126.305 51.6963 126.305H0.129028V107.389H48.3576C50.5839 107.389 52.3636 106.524 53.7001 104.794C54.8866 103.262 55.4798 101.356 55.4798 99.0808C55.4798 96.8551 54.9113 95.0281 53.7726 93.5915C52.4872 91.9606 50.6812 91.1451 48.3576 91.1451H0.129028V70.9672H48.3576C50.6317 70.9672 52.3884 70.1929 53.6259 68.6427C54.8618 67.0908 55.4798 65.2572 55.4798 63.1402C55.4798 60.8766 54.8866 58.9821 53.7001 57.4565C52.3636 55.7333 50.5839 54.87 48.3576 54.87H0.129028V35.7333H51.6963C59.3639 35.7333 65.5203 38.6971 70.1723 44.6196C74.3761 50.0018 76.4788 56.4203 76.4788 63.875C76.4788 67.183 75.9959 70.3181 75.0319 73.2802C74.0663 76.2423 72.6441 78.8354 70.7656 81.0561Z" fill="white"/>
<path d="M160.469 126.304H124.334C112.91 126.304 103.856 123.438 97.1789 117.706C91.9353 113.21 88.226 107.082 86.0491 99.3258C84.6138 94.2353 83.897 88.7015 83.897 82.723C83.897 81.3408 83.9102 80.3639 83.9349 79.7939C83.9596 79.2272 84.0206 78.7197 84.1211 78.2749V35.7333H104.153V78.2667C104.153 85.924 105.761 92.3687 108.976 97.6059C112.687 103.634 117.805 106.647 124.334 106.647H160.469V126.304Z" fill="white"/>
<path d="M258.262 126.305H236.819L213.149 56.5772C213.001 55.8359 212.482 55.4635 211.592 55.4635C210.75 55.4635 210.132 55.8359 209.736 56.5772L186.587 126.305H164.848C166.082 122.002 168.742 113.448 172.824 100.639C176.904 87.8323 180.873 75.7154 184.733 64.2921C189.035 51.5838 191.656 44.513 192.597 43.0765C194.378 40.5543 196.975 38.6268 200.388 37.2907C203.801 35.9563 207.51 35.2891 211.518 35.2891C215.524 35.2891 219.222 35.9563 222.61 37.2907C225.998 38.6268 228.582 40.5543 230.365 43.0765C231.45 44.5625 234.122 51.5838 238.377 64.1422C240.998 71.8571 244.905 83.974 250.1 100.491C253.265 110.531 255.986 119.134 258.262 126.305Z" fill="white"/>
<path d="M332.535 126.304H288.24C277.605 126.304 269.196 121.683 263.013 112.444C257.473 104.143 254.703 93.914 254.703 81.7593C254.703 69.4068 257.522 58.883 263.161 50.1862C269.394 40.5504 277.752 35.7333 288.24 35.7333H332.535V54.8699H291.579C286.632 54.8699 282.75 57.4877 279.93 62.7215C277.407 67.4151 276.145 73.2173 276.145 80.1299C276.145 87.2403 277.455 93.316 280.078 98.3505C282.946 103.881 286.78 106.647 291.579 106.647H332.535V126.304Z" fill="white"/>
<path d="M418.308 128.286L360.879 105.608V126.303H340.846V35.6601H360.879V57.7619L418.308 34.9715V56.7059L363.921 79.8489V83.2623L418.308 106.924V128.286Z" fill="white"/>
<path d="M676.729 54.8699H628.501C626.324 54.8699 624.607 55.6953 623.343 57.3443C622.082 58.9934 621.453 60.9258 621.453 63.14C621.453 65.3064 622.057 67.1515 623.27 68.6787C624.482 70.2058 626.225 70.9669 628.501 70.9669H656.918C664.584 70.9669 670.644 73.8351 675.096 79.5715C679.102 84.7147 681.106 91.0689 681.106 98.6355C681.106 106.153 679.102 112.507 675.096 117.698C670.644 123.436 664.584 126.304 656.918 126.304H605.201V107.016H653.652C655.73 107.016 657.363 106.164 658.55 104.459C659.738 102.751 660.333 100.785 660.333 98.5614C660.333 96.3357 659.763 94.4445 658.624 92.8877C657.487 91.3292 655.831 90.55 653.652 90.55H625.162C617.445 90.55 611.336 87.7098 606.834 82.0311C602.777 76.9455 600.75 70.6473 600.75 63.1416C600.75 55.7348 602.777 49.463 606.834 44.3247C611.386 38.5982 617.493 35.7333 625.162 35.7333H676.729V54.8699Z" fill="white"/>
<path d="M762.501 128.286L705.072 105.608V126.303H685.039V35.6601H705.072V57.7619L762.501 34.9715V56.7059L708.114 79.8489V83.2623L762.501 106.924V128.286Z" fill="white"/>
<path d="M846.717 93.8404C846.717 104.315 842.66 112.666 834.547 118.891C827.227 124.524 818.273 127.343 807.69 127.343C797.4 127.343 788.744 124.575 781.719 119.04C773.854 112.865 769.922 104.465 769.922 93.8404V35.732H789.584V90.5653C789.584 95.3083 791.613 99.1122 795.67 101.977C799.38 104.597 803.855 105.905 809.1 105.905C814.145 105.905 818.398 104.646 821.86 102.125C825.719 99.3099 827.647 95.4582 827.647 90.5653V35.732H846.717V93.8404Z" fill="white"/>
<path d="M931.451 126.304H895.316C883.889 126.304 874.837 123.438 868.16 117.706C862.915 113.21 859.206 107.082 857.029 99.3258C855.595 94.2353 854.878 88.7015 854.878 82.723C854.878 81.3408 854.89 80.3639 854.914 79.7939C854.939 79.2272 855 78.7197 855.101 78.2749V35.7333H875.134V78.2667C875.134 85.924 876.741 92.3687 879.957 97.6059C883.667 103.634 888.787 106.647 895.316 106.647H931.451V126.304Z" fill="white"/>
<path d="M1016.11 126.304H979.975C968.549 126.304 959.495 123.438 952.818 117.706C947.575 113.21 943.865 107.082 941.689 99.3258C940.255 94.2353 939.538 88.7015 939.538 82.723C939.538 81.3408 939.55 80.3639 939.574 79.7939C939.599 79.2272 939.66 78.7197 939.761 78.2749V35.7333H959.794V78.2667C959.794 85.924 961.4 92.3687 964.617 97.6059C968.326 103.634 973.446 106.647 979.975 106.647H1016.11V126.304Z" fill="white"/>
<path d="M3.2356 181.457H8.73794V187.658H13.8893V181.457H19.39V199.309H13.8893V192.233H8.73794V199.309H3.2356V181.457Z" fill="white"/>
<path d="M53.5909 181.457H68.3712V186.034H59.0933V188.26H67.5208V192.508H59.0933V194.732H68.6464V199.309H53.5909V181.457Z" fill="white"/>
<path d="M107.501 181.457H112.878L119.381 199.309H113.679L112.929 196.759H107.251L106.451 199.309H100.925L107.501 181.457ZM111.827 192.933L110.227 187.434H110.177L108.452 192.933H111.827Z" fill="white"/>
<path d="M160.858 199.309H154.706L149.379 181.457H154.931L157.857 192.283H157.907L160.782 181.457H166.435L160.858 199.309Z" fill="white"/>
<path d="M202.888 192.734L196.612 181.457H202.689L205.665 188.034L208.765 181.457H214.793L208.391 192.734V199.309H202.888V192.734Z" fill="white"/>
<path d="M290.952 193.309C290.952 193.759 291.028 194.159 291.151 194.485C291.552 195.559 292.753 195.785 293.778 195.785C294.678 195.785 296.054 195.484 296.054 194.159C296.054 193.233 295.278 192.984 292.203 192.108C289.377 191.309 286.15 190.535 286.15 186.935C286.15 182.81 289.676 181.034 293.353 181.034C297.23 181.034 300.655 182.508 300.806 186.859H295.604C295.703 186.186 295.405 185.734 294.953 185.436C294.503 185.108 293.877 184.985 293.328 184.985C292.578 184.985 291.352 185.184 291.352 186.186C291.453 187.459 294.004 187.734 296.53 188.434C299.055 189.134 301.556 190.309 301.556 193.584C301.556 198.235 297.28 199.736 293.304 199.736C291.277 199.736 285.501 199.011 285.45 193.309H290.952Z" fill="white"/>
<path d="M334.633 181.457H343.836C348.687 181.457 350.388 185.008 350.388 187.558C350.388 191.884 347.486 193.91 343.385 193.91H340.135V199.309H334.633V181.457ZM340.135 189.658H342.261C343.686 189.658 345.186 189.558 345.186 187.759C345.186 186.133 343.937 186.034 342.585 186.034H340.135V189.658Z" fill="white"/>
<path d="M392.143 181.034C397.571 181.034 401.196 184.933 401.196 190.383C401.196 195.834 397.571 199.736 392.143 199.736C386.716 199.736 383.089 195.834 383.089 190.383C383.089 184.933 386.716 181.034 392.143 181.034ZM392.143 195.284C393.544 195.284 395.694 194.358 395.694 190.383C395.694 186.41 393.544 185.484 392.143 185.484C390.744 185.484 388.592 186.41 388.592 190.383C388.592 194.358 390.744 195.284 392.143 195.284Z" fill="white"/>
<path d="M434.896 181.457H445.376C448.502 181.457 451.203 183.184 451.203 186.56C451.203 188.408 450.352 190.358 448.527 191.034C450.028 191.609 450.952 193.26 451.153 195.484C451.228 196.36 451.252 198.484 451.753 199.309H446.251C445.976 198.408 445.877 197.485 445.801 196.559C445.651 194.859 445.501 193.083 443.324 193.083H440.399V199.309H434.896V181.457ZM440.399 189.258H443.275C444.3 189.258 445.7 189.083 445.7 187.482C445.7 186.357 445.074 185.708 442.975 185.708H440.399V189.258Z" fill="white"/>
<path d="M488.506 186.034H483.505V181.457H499.009V186.034H494.008V199.309H488.506V186.034Z" fill="white"/>
<path d="M536.788 193.309C536.788 193.759 536.864 194.159 536.989 194.485C537.389 195.559 538.591 195.785 539.614 195.785C540.515 195.785 541.891 195.484 541.891 194.159C541.891 193.233 541.114 192.984 538.04 192.108C535.214 191.309 531.986 190.535 531.986 186.935C531.986 182.81 535.514 181.034 539.189 181.034C543.065 181.034 546.491 182.508 546.642 186.859H541.44C541.54 186.186 541.24 185.734 540.791 185.436C540.339 185.108 539.713 184.985 539.166 184.985C538.414 184.985 537.19 185.184 537.19 186.186C537.289 187.459 539.84 187.734 542.366 188.434C544.891 189.134 547.392 190.309 547.392 193.584C547.392 198.235 543.116 199.736 539.138 199.736C537.114 199.736 531.337 199.011 531.287 193.309H536.788Z" fill="white"/>
<path d="M620.198 181.457H625.826L631.027 191.009H631.078V181.457H636.279V199.309H630.926L625.45 189.558H625.399V199.309H620.198V181.457Z" fill="white"/>
<path d="M686.736 192.41C686.736 197.358 684.062 199.736 678.609 199.736C673.158 199.736 670.456 197.358 670.456 192.41V181.457H675.96V191.185C675.96 193.009 675.96 195.284 678.634 195.284C681.236 195.284 681.236 193.009 681.236 191.185V181.457H686.736V192.41Z" fill="white"/>
<path d="M725.065 186.034H720.062V181.457H735.567V186.034H730.565V199.309H725.065V186.034Z" fill="white"/>
<path d="M768.971 181.457H779.449C782.576 181.457 785.276 183.184 785.276 186.56C785.276 188.408 784.427 190.358 782.601 191.034C784.102 191.609 785.027 193.26 785.228 195.484C785.304 196.36 785.327 198.484 785.828 199.309H780.325C780.05 198.408 779.951 197.485 779.875 196.559C779.726 194.859 779.576 193.083 777.4 193.083H774.474V199.309H768.971V181.457ZM774.474 189.258H777.349C778.374 189.258 779.775 189.083 779.775 187.482C779.775 186.357 779.15 185.708 777.049 185.708H774.474V189.258Z" fill="white"/>
<path d="M824.355 181.457H818.853V199.309H824.355V181.457Z" fill="white"/>
<path d="M862.735 186.034H857.732V181.457H873.238V186.034H868.236V199.309H862.735V186.034Z" fill="white"/>
<path d="M912.144 181.457H906.642V199.309H912.144V181.457Z" fill="white"/>
<path d="M954.876 181.034C960.301 181.034 963.928 184.933 963.928 190.383C963.928 195.834 960.301 199.736 954.876 199.736C949.448 199.736 945.822 195.834 945.822 190.383C945.822 184.933 949.448 181.034 954.876 181.034ZM954.876 195.284C956.277 195.284 958.425 194.358 958.425 190.383C958.425 186.41 956.277 185.484 954.876 185.484C953.475 185.484 951.325 186.41 951.325 190.383C951.325 194.358 953.475 195.284 954.876 195.284Z" fill="white"/>
<path d="M997.653 181.457H1003.28L1008.48 191.009H1008.53V181.457H1013.73V199.309H1008.38L1002.91 189.558H1002.86V199.309H997.653V181.457Z" fill="white"/>
<path d="M592.713 99.4994C587.654 94.6148 587.41 88.6922 589.108 81.9592C589.783 79.2788 591.136 59.9165 591.136 59.2295C591.136 55.8457 591.339 49.0731 590.864 45.9249C588.846 32.5098 585.471 29.5032 577.774 21.8081C570.508 14.5446 560.4 9.65826 550.676 6.12617C547.746 5.06357 544.714 4.28104 541.719 3.41614C532.177 0.658335 521.63 0.150927 513.864 0.108093H513.859C506.092 0.150927 495.546 0.656689 486.003 3.41449C483.009 4.28104 479.976 5.06193 477.047 6.12617C467.322 9.65826 457.216 14.5446 449.95 21.8081C442.251 29.5032 438.877 32.5098 436.858 45.9249C436.383 49.0731 437.939 79.2788 438.614 81.9592C440.312 88.6922 440.068 94.6148 435.009 99.4994C433.471 100.984 433.467 102.396 434.216 104.167C435.48 107.155 436.153 113.802 437.908 116.527C439.813 119.484 444.016 122.321 445.74 123.443C446.495 123.934 449.405 125.509 450.11 125.819C451.242 126.316 460.54 127.369 461.858 127.369C463.076 127.369 476.43 128.804 476.43 135.166C476.43 139.179 475.829 139.992 476.692 143.982C477.015 145.481 478.886 152.357 478.787 152.693C478.717 152.926 478.704 155.805 478.694 156.048C478.668 156.789 478.685 157.543 478.9 158.252C479.116 158.962 479.551 159.629 480.199 159.992C480.97 160.425 482.47 160.372 483.351 160.293C483.697 160.262 484.063 160.22 484.343 160.015C484.515 159.891 484.656 155.67 484.846 153.619C484.933 152.667 485.148 153.061 485.169 152.964C485.182 153.003 485.426 152.735 485.528 153.711C485.731 155.647 485.858 159.504 485.92 159.558C486.108 159.725 486.38 159.749 486.632 159.766C487.214 159.802 488.198 159.833 488.718 159.57C488.944 159.454 489.144 159.288 489.369 159.169C489.865 158.909 490.075 158.901 490.622 158.774C490.79 158.735 490.961 158.68 491.088 158.563C491.23 158.435 491.299 158.244 491.337 158.054C491.408 157.702 491.502 157.331 491.395 156.988C491.353 156.856 491.172 153.504 491.21 151.664C491.232 150.568 491.49 150.629 491.466 150.519C491.515 150.693 491.625 150.642 491.754 151.695C491.986 153.608 492.281 157.09 492.395 157.525C492.441 157.697 492.374 157.891 492.461 158.048C492.586 158.27 492.881 158.357 493.14 158.329C493.4 158.301 493.637 158.184 493.88 158.089C494.491 157.848 494.779 157.738 495.439 157.769C496.08 157.799 496.391 157.952 496.951 157.649C497.47 157.367 497.719 156.758 497.732 156.181C497.737 155.973 497.662 153.064 497.76 151.509C497.83 150.392 498.093 150.499 498.057 150.352C498.115 150.344 498.156 150.858 498.167 150.95C498.247 151.593 498.752 156.716 499.247 157.135C499.738 157.55 500.442 157.566 501.086 157.562C501.968 157.553 502.096 157.547 502.978 157.54C503.243 157.538 503.513 157.535 503.762 157.446C504.003 157.361 504.21 157.199 504.387 157.016C504.851 156.535 505.14 152.459 505.397 150.423C505.514 149.489 505.741 149.988 505.769 149.675C505.776 149.871 505.975 149.563 506.048 150.547C506.175 152.268 506.203 155.627 506.227 155.97C506.247 156.234 506.28 156.524 506.481 156.703C506.61 156.82 506.788 156.87 506.961 156.899C508.267 157.125 509.976 156.446 511.29 156.639C511.83 156.718 512.369 156.944 512.906 156.843C513.282 156.772 513.381 153.048 513.529 150.95C513.607 149.848 513.819 149.759 513.834 149.664C514.147 149.374 514.045 150.738 514.056 151.074C514.098 151.352 514.243 156.735 514.816 156.843C515.353 156.944 515.892 156.718 516.434 156.639C517.746 156.446 519.455 157.125 520.763 156.899C520.936 156.87 521.113 156.82 521.241 156.703C521.442 156.524 521.475 156.234 521.495 155.97C521.52 155.632 521.505 152.415 521.632 150.702C521.706 149.69 521.946 149.876 521.953 149.675C521.981 149.995 522.063 149.68 522.185 150.641C522.443 152.672 522.876 156.54 523.336 157.016C523.514 157.199 523.72 157.361 523.96 157.446C524.209 157.535 524.479 157.538 524.745 157.54C525.626 157.547 525.755 157.553 526.638 157.562C527.281 157.566 527.984 157.55 528.475 157.135C528.78 156.876 528.993 153.184 529.237 151.291C529.388 150.11 529.644 150.349 529.665 150.352C529.632 150.492 529.677 150.23 529.741 151.291C529.84 152.875 529.985 155.968 529.99 156.181C530.003 156.758 530.252 157.367 530.771 157.649C531.331 157.952 531.644 157.799 532.284 157.769C532.943 157.738 533.231 157.848 533.843 158.089C534.085 158.184 534.324 158.301 534.582 158.329C534.843 158.357 535.136 158.27 535.261 158.048C535.349 157.891 535.281 157.697 535.327 157.525C535.433 157.127 535.688 153.593 535.909 151.758C536.062 150.484 536.199 150.721 536.258 150.519C536.229 150.642 536.441 150.598 536.469 151.881C536.507 153.642 536.365 156.868 536.329 156.988C536.22 157.331 536.314 157.702 536.385 158.054C536.425 158.244 536.492 158.435 536.634 158.563C536.761 158.68 536.934 158.735 537.102 158.774C537.648 158.901 537.857 158.909 538.354 159.169C538.579 159.288 538.778 159.454 539.005 159.57C539.524 159.833 540.508 159.802 541.09 159.766C541.342 159.749 541.614 159.725 541.804 159.558C541.865 159.506 542.011 155.954 542.212 154.023C542.319 152.992 542.54 153.005 542.553 152.964C542.575 153.064 542.833 152.797 542.926 153.805C543.115 155.855 543.211 159.894 543.379 160.015C543.659 160.22 544.025 160.262 544.373 160.293C545.253 160.372 546.754 160.425 547.525 159.992C548.171 159.629 548.606 158.962 548.822 158.252C549.038 157.543 549.054 156.789 549.028 156.048C549.018 155.805 549.005 152.926 548.936 152.693C548.837 152.357 550.707 145.481 551.032 143.982C551.894 139.992 551.294 139.179 551.294 135.166C551.294 128.804 564.396 127.369 565.864 127.369C567.227 127.369 576.48 126.316 577.612 125.819C578.317 125.509 581.228 123.934 581.982 123.443C583.706 122.321 587.696 119.578 589.816 116.527C591.665 113.865 592.242 107.155 593.506 104.167C594.256 102.396 594.251 100.984 592.713 99.4994ZM524.753 125.776C524.573 126.848 523.525 128.203 522.541 128.61C521.113 129.199 519.481 128.835 518.394 127.326C517.629 126.267 516.701 125.325 515.881 124.303C514.002 121.969 513.631 121.987 511.842 124.303C511.041 125.341 510.093 126.265 509.329 127.326C508.241 128.834 506.61 129.199 505.183 128.61C504.199 128.203 503.149 126.848 502.969 125.776C501.564 117.417 502.91 109.4 506.964 101.985C508.35 99.4516 509.284 96.1864 512.456 94.8652C512.913 94.6757 513.387 94.5489 513.86 94.483C514.335 94.5489 514.809 94.6757 515.266 94.8652C518.018 96.0118 519.793 99.9969 520.758 101.763C524.812 109.178 526.158 117.417 524.753 125.776ZM518.936 91.684C518.936 90.5736 522.006 87.7021 525.527 88.9443C526.775 89.3841 531.216 89.3199 532.158 89.2046C533.714 89.0151 535.586 88.2985 536.754 87.5077C541.27 84.4517 540.986 83.6148 545.019 79.974C549.947 75.5226 554.275 70.4156 559.04 65.7748C561.052 63.8127 563.392 62.101 565.821 60.6826C567.57 59.6628 573.771 59.106 575.788 58.7271C578.082 58.2938 580.013 59.33 579.913 61.7007C579.797 64.4535 579.626 67.2805 578.897 69.9148C576.739 77.7335 575.025 87.1058 570.564 93.9129C570.106 94.6148 567.743 96.8948 567.013 97.3511C563.289 99.6823 559.937 101.88 555.768 102.933C555.198 103.076 551.879 101.242 551.114 100.938C545.096 98.534 541.509 98.272 535.083 97.7086C533.973 97.6114 523.87 94.735 518.936 91.684ZM508.786 91.684C503.853 94.735 493.751 97.6114 492.64 97.7086C486.214 98.272 482.628 98.534 476.608 100.938C475.844 101.242 472.525 103.076 471.956 102.933C467.785 101.88 464.434 99.6823 460.709 97.3511C459.979 96.8948 457.616 94.6148 457.158 93.9129C452.699 87.1058 450.985 77.7335 448.825 69.9148C448.096 67.2805 447.925 64.4535 447.81 61.7007C447.711 59.33 449.641 58.2938 451.934 58.7271C453.951 59.106 460.152 59.6628 461.901 60.6826C464.33 62.101 466.67 63.8127 468.683 65.7748C473.448 70.4156 477.777 75.5226 482.704 79.974C486.738 83.6148 486.453 84.4517 490.968 87.5077C492.136 88.2985 494.01 89.0151 495.565 89.2046C496.506 89.3199 500.947 89.3841 502.195 88.9443C505.716 87.7021 508.786 90.6972 508.786 91.684Z" fill="white"/>
<path d="M1018.43 112.336V107.59H1016.73V106.723H1021.12V107.59H1019.42V112.336H1018.43Z" fill="white"/>
<path d="M1026.8 112.336V108.002L1025.08 112.336H1024.66L1022.94 108.002V112.336H1021.95V106.723H1023.34L1024.87 110.577L1026.4 106.723H1027.79V112.336H1026.8Z" fill="white"/>
</svg>
