<svg width="245" height="72" viewBox="0 0 245 72" fill="none" xmlns="http://www.w3.org/2000/svg">
<path d="M30.4725 32.1251C30.8523 32.6103 31.1373 33.1566 31.3272 33.7638C31.5174 34.3707 31.6125 35.018 31.6125 35.7061C31.6125 37.2229 31.1862 38.5179 30.3336 39.5898C29.3886 40.7837 28.1155 41.3805 26.5132 41.3805H15.8064V37.5113H25.82C26.2823 37.5113 26.6518 37.3344 26.9293 36.9806C27.1756 36.6672 27.2988 36.2773 27.2988 35.8119C27.2988 35.3567 27.1807 34.983 26.9443 34.6891C26.6774 34.3555 26.3025 34.1887 25.82 34.1887H15.8064V30.0614H25.82C26.2922 30.0614 26.6569 29.903 26.9139 29.5859C27.1705 29.2685 27.2988 28.8935 27.2988 28.4604C27.2988 27.9974 27.1756 27.6099 26.9293 27.2979C26.6518 26.9454 26.2823 26.7688 25.82 26.7688H15.8064V22.8545H26.5132C28.1052 22.8545 29.3835 23.4607 30.3493 24.6721C31.2222 25.773 31.6587 27.0859 31.6587 28.6107C31.6587 29.2874 31.5585 29.9286 31.3583 30.5345C31.1578 31.1404 30.8626 31.6708 30.4725 32.1251Z" fill="white"/>
<path d="M49.0974 41.3803H41.5949C39.2228 41.3803 37.343 40.794 35.9566 39.6217C34.8679 38.7021 34.0978 37.4485 33.6458 35.862C33.3478 34.8208 33.199 33.6889 33.199 32.466C33.199 32.1833 33.2017 31.9835 33.2068 31.8669C33.212 31.751 33.2246 31.6472 33.2455 31.5562V22.8545H37.4046V31.5545C37.4046 33.1208 37.7385 34.439 38.4061 35.5102C39.1766 36.7432 40.2393 37.3596 41.5949 37.3596H49.0974V41.3803Z" fill="white"/>
<path d="M69.4018 41.3805H64.9498L60.0352 27.1181C60.0044 26.9664 59.8966 26.8903 59.7119 26.8903C59.537 26.8903 59.4087 26.9664 59.3266 27.1181L54.5201 41.3805H50.0065C50.2628 40.5004 50.815 38.7508 51.6625 36.1308C52.5097 33.5112 53.3339 31.0327 54.1352 28.6961C55.0286 26.0967 55.5726 24.6504 55.7679 24.3566C56.1378 23.8406 56.677 23.4464 57.3856 23.1731C58.0942 22.9001 58.8644 22.7637 59.6965 22.7637C60.5282 22.7637 61.296 22.9001 61.9994 23.1731C62.7029 23.4464 63.2394 23.8406 63.6096 24.3566C63.8351 24.6605 64.3897 26.0967 65.2731 28.6655C65.8175 30.2435 66.6287 32.722 67.7071 36.1005C68.3644 38.154 68.9293 39.9137 69.4018 41.3805Z" fill="white"/>
<path d="M84.8229 41.3803H75.6261C73.418 41.3803 71.672 40.4351 70.3883 38.5454C69.238 36.8474 68.6629 34.7551 68.6629 32.2689C68.6629 29.7422 69.2483 27.5897 70.4191 25.8108C71.7131 23.8398 73.4484 22.8545 75.6261 22.8545H84.8229V26.7688H76.3193C75.2922 26.7688 74.4861 27.3042 73.9007 28.3748C73.3769 29.3348 73.1148 30.5217 73.1148 31.9356C73.1148 33.39 73.3868 34.6328 73.9315 35.6626C74.5268 36.7938 75.323 37.3596 76.3193 37.3596H84.8229V41.3803Z" fill="white"/>
<path d="M102.632 41.7854L90.7079 37.1466V41.3797H86.5485V22.8391H90.7079V27.3599L102.632 22.6982V27.1439L91.3395 31.8777V32.5759L102.632 37.4158V41.7854Z" fill="white"/>
<path d="M156.287 26.7688H146.274C145.822 26.7688 145.465 26.9376 145.203 27.2749C144.941 27.6122 144.81 28.0075 144.81 28.4604C144.81 28.9035 144.936 29.2809 145.188 29.5933C145.439 29.9057 145.801 30.0614 146.274 30.0614H152.174C153.765 30.0614 155.024 30.648 155.948 31.8214C156.78 32.8734 157.196 34.1731 157.196 35.7208C157.196 37.2585 156.78 38.5582 155.948 39.62C155.024 40.7937 153.765 41.3803 152.174 41.3803H141.436V37.435H151.496C151.927 37.435 152.266 37.2608 152.513 36.9121C152.759 36.5626 152.883 36.1606 152.883 35.7057C152.883 35.2504 152.764 34.8636 152.528 34.5451C152.292 34.2264 151.948 34.067 151.496 34.067H145.58C143.978 34.067 142.71 33.486 141.775 32.3245C140.933 31.2842 140.512 29.996 140.512 28.4607C140.512 26.9457 140.933 25.6628 141.775 24.6118C142.72 23.4405 143.988 22.8545 145.58 22.8545H156.287V26.7688Z" fill="white"/>
<path d="M174.096 41.7854L162.172 37.1466V41.3797H158.012V22.8391H162.172V27.3599L174.096 22.6982V27.1439L162.803 31.8777V32.5759L174.096 37.4158V41.7854Z" fill="white"/>
<path d="M191.581 34.7398C191.581 36.8823 190.739 38.5904 189.054 39.8639C187.534 41.016 185.675 41.5926 183.478 41.5926C181.342 41.5926 179.544 41.0264 178.086 39.8942C176.453 38.6312 175.636 36.913 175.636 34.7398V22.854H179.719V34.0699C179.719 35.0401 180.14 35.8181 180.982 36.4041C181.753 36.9399 182.682 37.2075 183.771 37.2075C184.818 37.2075 185.701 36.95 186.42 36.4345C187.221 35.8586 187.622 35.0707 187.622 34.0699V22.854H191.581V34.7398Z" fill="white"/>
<path d="M209.174 41.3803H201.671C199.299 41.3803 197.42 40.794 196.033 39.6217C194.944 38.7021 194.174 37.4485 193.722 35.862C193.424 34.8208 193.276 33.6889 193.276 32.466C193.276 32.1833 193.278 31.9835 193.283 31.8669C193.288 31.751 193.301 31.6472 193.322 31.5562V22.8545H197.481V31.5545C197.481 33.1208 197.815 34.439 198.483 35.5102C199.253 36.7432 200.316 37.3596 201.671 37.3596H209.174V41.3803Z" fill="white"/>
<path d="M226.752 41.3803H219.249C216.877 41.3803 214.997 40.794 213.611 39.6217C212.522 38.7021 211.752 37.4485 211.3 35.862C211.002 34.8208 210.853 33.6889 210.853 32.466C210.853 32.1833 210.856 31.9835 210.861 31.8669C210.866 31.751 210.879 31.6472 210.899 31.5562V22.8545H215.059V31.5545C215.059 33.1208 215.393 34.439 216.06 35.5102C216.831 36.7432 217.894 37.3596 219.249 37.3596H226.752V41.3803Z" fill="white"/>
<path d="M16.4515 52.6616H17.5939V53.93H18.6635V52.6616H19.8055V56.313H18.6635V54.8658H17.5939V56.313H16.4515V52.6616Z" fill="white"/>
<path d="M26.9066 52.6616H29.9754V53.5977H28.049V54.053H29.7988V54.922H28.049V55.3769H30.0325V56.313H26.9066V52.6616Z" fill="white"/>
<path d="M38.0998 52.6616H39.2162L40.5663 56.313H39.3825L39.2268 55.7914H38.0478L37.8819 56.313H36.7343L38.0998 52.6616ZM38.9979 55.009L38.6657 53.8842H38.6555L38.2972 55.009H38.9979Z" fill="white"/>
<path d="M49.1782 56.313H47.9009L46.7947 52.6616H47.9474L48.5551 54.8759H48.5654L49.1624 52.6616H50.336L49.1782 56.313Z" fill="white"/>
<path d="M57.9048 54.9682L56.6016 52.6616H57.8634L58.4813 54.0068L59.1249 52.6616H60.3765L59.0472 54.9682V56.313H57.9048V54.9682Z" fill="white"/>
<path d="M76.1892 55.086C76.1892 55.178 76.2049 55.2599 76.2306 55.3266C76.3137 55.5463 76.5631 55.5924 76.776 55.5924C76.9628 55.5924 77.2485 55.5308 77.2485 55.2599C77.2485 55.0705 77.0873 55.0196 76.4489 54.8403C75.8621 54.6769 75.1922 54.5185 75.1922 53.7822C75.1922 52.9385 75.9243 52.5752 76.6877 52.5752C77.4928 52.5752 78.2037 52.8768 78.2352 53.7667H77.1551C77.1756 53.6289 77.1137 53.5366 77.0199 53.4756C76.9265 53.4085 76.7965 53.3833 76.6826 53.3833C76.5269 53.3833 76.2723 53.424 76.2723 53.6289C76.2932 53.8894 76.8228 53.9457 77.3473 54.0889C77.8715 54.2321 78.3909 54.4723 78.3909 55.1423C78.3909 56.0935 77.503 56.4005 76.6774 56.4005C76.2566 56.4005 75.0573 56.2522 75.0467 55.086H76.1892Z" fill="white"/>
<path d="M85.2585 52.6616H87.1694C88.1766 52.6616 88.5297 53.3878 88.5297 53.9094C88.5297 54.7943 87.9272 55.2088 87.0756 55.2088H86.4009V56.313H85.2585V52.6616ZM86.4009 54.3391H86.8423C87.1382 54.3391 87.4496 54.3185 87.4496 53.9505C87.4496 53.6179 87.1902 53.5977 86.9097 53.5977H86.4009V54.3391Z" fill="white"/>
<path d="M97.1992 52.5752C98.3262 52.5752 99.0789 53.3728 99.0789 54.4875C99.0789 55.6026 98.3262 56.4005 97.1992 56.4005C96.0725 56.4005 95.3194 55.6026 95.3194 54.4875C95.3194 53.3728 96.0725 52.5752 97.1992 52.5752ZM97.1992 55.49C97.49 55.49 97.9365 55.3006 97.9365 54.4875C97.9365 53.6747 97.49 53.4854 97.1992 53.4854C96.9087 53.4854 96.4618 53.6747 96.4618 54.4875C96.4618 55.3006 96.9087 55.49 97.1992 55.49Z" fill="white"/>
<path d="M106.076 52.6616H108.252C108.901 52.6616 109.462 53.0148 109.462 53.7052C109.462 54.0833 109.285 54.4823 108.906 54.6204C109.218 54.738 109.41 55.0757 109.451 55.5306C109.467 55.7099 109.472 56.1442 109.576 56.313H108.433C108.376 56.1287 108.356 55.94 108.34 55.7506C108.309 55.4029 108.278 55.0396 107.826 55.0396H107.218V56.313H106.076V52.6616ZM107.218 54.2572H107.815C108.028 54.2572 108.319 54.2215 108.319 53.8939C108.319 53.6638 108.189 53.531 107.753 53.531H107.218V54.2572Z" fill="white"/>
<path d="M117.207 53.5977H116.168V52.6616H119.388V53.5977H118.349V56.313H117.207V53.5977Z" fill="white"/>
<path d="M127.231 55.086C127.231 55.178 127.247 55.2599 127.273 55.3266C127.356 55.5463 127.606 55.5924 127.818 55.5924C128.005 55.5924 128.291 55.5308 128.291 55.2599C128.291 55.0705 128.13 55.0196 127.491 54.8403C126.905 54.6769 126.234 54.5185 126.234 53.7822C126.234 52.9385 126.967 52.5752 127.73 52.5752C128.535 52.5752 129.246 52.8768 129.277 53.7667H128.197C128.218 53.6289 128.156 53.5366 128.062 53.4756C127.969 53.4085 127.839 53.3833 127.725 53.3833C127.569 53.3833 127.315 53.424 127.315 53.6289C127.335 53.8894 127.865 53.9457 128.39 54.0889C128.914 54.2321 129.433 54.4723 129.433 55.1423C129.433 56.0935 128.545 56.4005 127.719 56.4005C127.299 56.4005 126.1 56.2522 126.089 55.086H127.231Z" fill="white"/>
<path d="M144.55 52.6616H145.718L146.798 54.6154H146.809V52.6616H147.888V56.313H146.777L145.64 54.3185H145.629V56.313H144.55V52.6616Z" fill="white"/>
<path d="M158.365 54.9018C158.365 55.9141 157.809 56.4003 156.677 56.4003C155.546 56.4003 154.984 55.9141 154.984 54.9018V52.6616H156.127V54.6514C156.127 55.0245 156.127 55.4898 156.682 55.4898C157.223 55.4898 157.223 55.0245 157.223 54.6514V52.6616H158.365V54.9018Z" fill="white"/>
<path d="M166.323 53.5977H165.284V52.6616H168.503V53.5977H167.465V56.313H166.323V53.5977Z" fill="white"/>
<path d="M175.439 52.6616H177.614C178.264 52.6616 178.824 53.0148 178.824 53.7052C178.824 54.0833 178.648 54.4823 178.269 54.6204C178.581 54.738 178.773 55.0757 178.814 55.5306C178.83 55.7099 178.835 56.1442 178.939 56.313H177.796C177.739 56.1287 177.719 55.94 177.703 55.7506C177.672 55.4029 177.641 55.0396 177.189 55.0396H176.581V56.313H175.439V52.6616ZM176.581 54.2572H177.178C177.391 54.2572 177.682 54.2215 177.682 53.8939C177.682 53.6638 177.552 53.531 177.116 53.531H176.581V54.2572Z" fill="white"/>
<path d="M186.938 52.6616H185.796V56.313H186.938V52.6616Z" fill="white"/>
<path d="M194.907 53.5977H193.868V52.6616H197.087V53.5977H196.049V56.313H194.907V53.5977Z" fill="white"/>
<path d="M205.165 52.6616H204.023V56.313H205.165V52.6616Z" fill="white"/>
<path d="M214.038 52.5752C215.164 52.5752 215.917 53.3728 215.917 54.4875C215.917 55.6026 215.164 56.4005 214.038 56.4005C212.911 56.4005 212.158 55.6026 212.158 54.4875C212.158 53.3728 212.911 52.5752 214.038 52.5752ZM214.038 55.49C214.329 55.49 214.775 55.3006 214.775 54.4875C214.775 53.6747 214.329 53.4854 214.038 53.4854C213.747 53.4854 213.3 53.6747 213.3 54.4875C213.3 55.3006 213.747 55.49 214.038 55.49Z" fill="white"/>
<path d="M222.92 52.6616H224.088L225.168 54.6154H225.178V52.6616H226.258V56.313H225.147L224.01 54.3185H224V56.313H222.92V52.6616Z" fill="white"/>
<path d="M138.843 35.8974C137.793 34.8983 137.742 33.6869 138.094 32.3096C138.235 31.7614 138.516 27.8009 138.516 27.6604C138.516 26.9683 138.558 25.583 138.459 24.939C138.04 22.195 137.339 21.58 135.741 20.006C134.233 18.5203 132.134 17.5208 130.115 16.7984C129.507 16.581 128.877 16.4209 128.255 16.244C126.274 15.6799 124.084 15.5761 122.472 15.5674H122.471C120.858 15.5761 118.668 15.6796 116.687 16.2437C116.065 16.4209 115.436 16.5807 114.827 16.7984C112.808 17.5208 110.71 18.5203 109.202 20.006C107.603 21.58 106.902 22.195 106.483 24.939C106.385 25.583 106.708 31.7614 106.848 32.3096C107.2 33.6869 107.15 34.8983 106.099 35.8974C105.78 36.201 105.779 36.4898 105.935 36.8521C106.197 37.4633 106.337 38.823 106.701 39.3804C107.097 39.9853 107.969 40.5655 108.327 40.795C108.484 40.8954 109.088 41.2176 109.235 41.2809C109.47 41.3827 111.4 41.598 111.674 41.598C111.927 41.598 114.699 41.8915 114.699 43.1929C114.699 44.0138 114.575 44.1799 114.754 44.9961C114.821 45.3027 115.209 46.7093 115.189 46.778C115.174 46.8255 115.172 47.4146 115.17 47.4641C115.164 47.6157 115.168 47.7701 115.212 47.915C115.257 48.0602 115.348 48.1967 115.482 48.2708C115.642 48.3594 115.953 48.3486 116.137 48.3325C116.208 48.3261 116.284 48.3176 116.342 48.2755C116.378 48.2502 116.407 47.3869 116.447 46.9674C116.465 46.7726 116.509 46.8531 116.514 46.8333C116.517 46.8414 116.567 46.7864 116.588 46.9863C116.631 47.3822 116.657 48.1711 116.67 48.1822C116.709 48.2162 116.765 48.2213 116.818 48.2246C116.938 48.2321 117.143 48.2385 117.251 48.1845C117.298 48.1609 117.339 48.1269 117.386 48.1027C117.489 48.0494 117.532 48.0477 117.646 48.0218C117.681 48.0137 117.717 48.0026 117.743 47.9786C117.772 47.9524 117.787 47.9133 117.795 47.8745C117.809 47.8024 117.829 47.7266 117.807 47.6565C117.798 47.6295 117.76 46.9438 117.768 46.5674C117.773 46.3433 117.826 46.3558 117.821 46.3332C117.831 46.3689 117.854 46.3585 117.881 46.5738C117.929 46.965 117.991 47.6774 118.014 47.7663C118.024 47.8014 118.01 47.8412 118.028 47.8732C118.054 47.9187 118.115 47.9365 118.169 47.9308C118.223 47.9251 118.272 47.9011 118.322 47.8816C118.449 47.8324 118.509 47.8098 118.646 47.8162C118.779 47.8223 118.844 47.8536 118.96 47.7916C119.068 47.734 119.12 47.6093 119.122 47.4914C119.123 47.4489 119.108 46.8538 119.128 46.5357C119.143 46.3073 119.197 46.3292 119.19 46.2992C119.202 46.2975 119.21 46.4026 119.213 46.4215C119.229 46.5529 119.334 47.6009 119.437 47.6865C119.539 47.7714 119.685 47.7748 119.819 47.7738C120.002 47.7721 120.028 47.7707 120.211 47.7694C120.267 47.769 120.323 47.7684 120.374 47.7502C120.424 47.7327 120.467 47.6996 120.504 47.6622C120.6 47.5638 120.66 46.7302 120.714 46.3137C120.738 46.1226 120.785 46.2247 120.791 46.1607C120.792 46.2008 120.834 46.1378 120.849 46.3389C120.875 46.6911 120.881 47.3782 120.886 47.4482C120.89 47.5022 120.897 47.5615 120.939 47.5982C120.966 47.6221 121.002 47.6322 121.038 47.6383C121.31 47.6845 121.665 47.5456 121.937 47.5851C122.049 47.6012 122.161 47.6474 122.273 47.6268C122.351 47.6124 122.371 46.8505 122.402 46.4215C122.418 46.196 122.462 46.1779 122.466 46.1583C122.531 46.099 122.509 46.378 122.512 46.4468C122.52 46.5037 122.55 47.6046 122.669 47.6268C122.781 47.6474 122.893 47.6012 123.005 47.5851C123.278 47.5456 123.633 47.6845 123.904 47.6383C123.94 47.6322 123.977 47.6221 124.003 47.5982C124.045 47.5615 124.052 47.5022 124.056 47.4482C124.061 47.3792 124.058 46.7211 124.085 46.3706C124.1 46.1637 124.15 46.2018 124.151 46.1607C124.157 46.226 124.174 46.1617 124.2 46.3581C124.253 46.7736 124.343 47.5648 124.438 47.6622C124.475 47.6996 124.518 47.7327 124.568 47.7502C124.62 47.7684 124.676 47.769 124.731 47.7694C124.914 47.7707 124.941 47.7721 125.124 47.7738C125.257 47.7748 125.404 47.7714 125.505 47.6865C125.569 47.6336 125.613 46.8784 125.664 46.4912C125.695 46.2496 125.748 46.2985 125.753 46.2992C125.746 46.3278 125.755 46.2742 125.768 46.4912C125.789 46.8151 125.819 47.4479 125.82 47.4914C125.823 47.6093 125.874 47.734 125.982 47.7916C126.098 47.8536 126.163 47.8223 126.296 47.8162C126.433 47.8098 126.493 47.8324 126.62 47.8816C126.67 47.9011 126.72 47.9251 126.773 47.9308C126.828 47.9365 126.888 47.9187 126.914 47.8732C126.933 47.8412 126.919 47.8014 126.928 47.7663C126.95 47.6848 127.003 46.962 127.049 46.5866C127.081 46.3261 127.109 46.3746 127.121 46.3332C127.115 46.3585 127.159 46.3494 127.165 46.6119C127.173 46.9721 127.144 47.6319 127.136 47.6565C127.114 47.7266 127.133 47.8024 127.148 47.8745C127.156 47.9133 127.17 47.9524 127.199 47.9786C127.226 48.0026 127.262 48.0137 127.297 48.0218C127.41 48.0477 127.453 48.0494 127.557 48.1027C127.603 48.1269 127.645 48.1609 127.692 48.1845C127.8 48.2385 128.004 48.2321 128.125 48.2246C128.177 48.2213 128.233 48.2162 128.273 48.1822C128.285 48.1714 128.316 47.4449 128.358 47.0499C128.38 46.839 128.426 46.8417 128.428 46.8333C128.433 46.8538 128.487 46.7992 128.506 47.0055C128.545 47.4247 128.565 48.2509 128.6 48.2755C128.658 48.3176 128.734 48.3261 128.806 48.3325C128.989 48.3486 129.301 48.3594 129.461 48.2708C129.595 48.1967 129.685 48.0602 129.73 47.915C129.775 47.7701 129.778 47.6157 129.773 47.4641C129.771 47.4146 129.768 46.8255 129.754 46.778C129.733 46.7093 130.121 45.3027 130.189 44.9961C130.368 44.1799 130.243 44.0138 130.243 43.1929C130.243 41.8915 132.964 41.598 133.268 41.598C133.551 41.598 135.473 41.3827 135.708 41.2809C135.854 41.2176 136.458 40.8954 136.615 40.795C136.973 40.5655 137.801 40.0045 138.241 39.3804C138.625 38.8358 138.745 37.4633 139.008 36.8521C139.163 36.4898 139.162 36.201 138.843 35.8974ZM124.733 41.2722C124.695 41.4915 124.478 41.7685 124.273 41.8518C123.977 41.9724 123.638 41.8979 123.412 41.5893C123.253 41.3726 123.061 41.1798 122.89 40.9709C122.5 40.4934 122.423 40.4971 122.052 40.9709C121.886 41.1832 121.689 41.3723 121.53 41.5893C121.304 41.8976 120.966 41.9724 120.669 41.8518C120.465 41.7685 120.247 41.4915 120.21 41.2722C119.918 39.5624 120.197 37.9226 121.039 36.4059C121.327 35.8876 121.521 35.2198 122.179 34.9495C122.274 34.9108 122.373 34.8848 122.471 34.8713C122.57 34.8848 122.668 34.9108 122.763 34.9495C123.334 35.184 123.703 35.9992 123.903 36.3604C124.745 37.8771 125.024 39.5624 124.733 41.2722ZM123.525 34.2988C123.525 34.0717 124.162 33.4843 124.893 33.7384C125.152 33.8284 126.074 33.8153 126.27 33.7917C126.593 33.7529 126.982 33.6063 127.224 33.4446C128.162 32.8195 128.103 32.6483 128.94 31.9036C129.964 30.9931 130.862 29.9485 131.852 28.9992C132.269 28.5979 132.755 28.2478 133.26 27.9576C133.623 27.749 134.91 27.6351 135.329 27.5576C135.805 27.469 136.206 27.681 136.185 28.1659C136.161 28.729 136.126 29.3072 135.974 29.846C135.526 31.4453 135.17 33.3624 134.244 34.7547C134.149 34.8983 133.658 35.3647 133.507 35.458C132.734 35.9348 132.038 36.3843 131.172 36.5997C131.054 36.629 130.365 36.2539 130.206 36.1916C128.956 35.7 128.212 35.6464 126.877 35.5311C126.647 35.5112 124.549 34.9229 123.525 34.2988ZM121.418 34.2988C120.393 34.9229 118.296 35.5112 118.065 35.5311C116.731 35.6464 115.986 35.7 114.736 36.1916C114.578 36.2539 113.889 36.629 113.771 36.5997C112.905 36.3843 112.209 35.9348 111.435 35.458C111.284 35.3647 110.793 34.8983 110.698 34.7547C109.772 33.3624 109.416 31.4453 108.968 29.846C108.817 29.3072 108.781 28.729 108.757 28.1659C108.737 27.681 109.137 27.469 109.613 27.5576C110.032 27.6351 111.32 27.749 111.683 27.9576C112.187 28.2478 112.673 28.5979 113.091 28.9992C114.08 29.9485 114.979 30.9931 116.002 31.9036C116.84 32.6483 116.78 32.8195 117.718 33.4446C117.96 33.6063 118.349 33.7529 118.672 33.7917C118.868 33.8153 119.79 33.8284 120.049 33.7384C120.78 33.4843 121.418 34.097 121.418 34.2988Z" fill="white"/>
<path d="M227.233 38.5231V37.5522H226.88V37.375H227.791V37.5522H227.438V38.5231H227.233Z" fill="white"/>
<path d="M228.971 38.5231V37.6365L228.615 38.5231H228.527L228.169 37.6365V38.5231H227.965V37.375H228.253L228.571 38.1632L228.888 37.375H229.176V38.5231H228.971Z" fill="white"/>
</svg>
